<svg width="299" height="385" viewBox="0 0 299 385" fill="none" xmlns="http://www.w3.org/2000/svg">
<circle cx="149.487" cy="234.588" r="149.487" fill="#8E6E3D"/>
<path d="M38.4004 0.0717773H259.202V45.3293C259.202 45.3293 235.888 69.3295 148.801 69.3295C61.7149 69.3295 38.4004 45.3293 38.4004 45.3293V0.0717773Z" fill="#896C46"/>
<path fill-rule="evenodd" clip-rule="evenodd" d="M164.573 125.901C159.641 125.223 154.605 124.873 149.487 124.873C88.8929 124.873 39.7717 173.994 39.7717 234.588C39.7717 295.182 88.8929 344.303 149.487 344.303C154.605 344.303 159.641 343.953 164.573 343.274V125.901Z" fill="#7B5F34"/>
<path d="M135.718 289.391L85.2334 238.906C83.6258 237.299 83.6796 234.676 85.352 233.136L105.425 214.647C107.041 213.159 109.554 213.252 111.055 214.856L135.747 241.23C137.27 242.858 139.83 242.926 141.437 241.382L204.986 180.349C206.541 178.857 208.999 178.864 210.544 180.365L228.83 198.128C230.443 199.695 230.447 202.284 228.839 203.857L141.343 289.423C139.776 290.955 137.268 290.941 135.718 289.391Z" fill="white"/>
</svg>
