<svg width="300" height="385" viewBox="0 0 300 385" fill="none" xmlns="http://www.w3.org/2000/svg">
<circle cx="150" cy="234.588" r="149.487" fill="#FACC48"/>
<path d="M38.9136 0.0717773H259.715V45.3293C259.715 45.3293 236.401 69.3295 149.314 69.3295C62.228 69.3295 38.9136 45.3293 38.9136 45.3293V0.0717773Z" fill="#ECB541"/>
<path fill-rule="evenodd" clip-rule="evenodd" d="M165.086 125.901C160.154 125.223 155.118 124.873 150 124.873C89.4061 124.873 40.2849 173.994 40.2849 234.588C40.2849 295.182 89.4061 344.303 150 344.303C155.118 344.303 160.154 343.953 165.086 343.274V125.901Z" fill="#ECB541"/>
<path d="M136.232 289.391L85.7466 238.906C84.139 237.299 84.1928 234.676 85.8651 233.136L105.939 214.647C107.554 213.159 110.067 213.252 111.568 214.856L136.26 241.23C137.783 242.858 140.343 242.926 141.951 241.382L205.5 180.349C207.054 178.857 209.512 178.864 211.058 180.365L229.343 198.128C230.956 199.695 230.961 202.284 229.352 203.857L141.857 289.423C140.29 290.955 137.781 290.941 136.232 289.391Z" fill="white"/>
</svg>
