<svg width="299" height="385" viewBox="0 0 299 385" fill="none" xmlns="http://www.w3.org/2000/svg">
<circle cx="149.487" cy="234.516" r="149.487" fill="#34A1AF"/>
<path d="M38.4004 0H259.202V45.2575C259.202 45.2575 235.888 69.2577 148.801 69.2577C61.7149 69.2577 38.4004 45.2575 38.4004 45.2575V0Z" fill="#386A6C"/>
<path fill-rule="evenodd" clip-rule="evenodd" d="M164.573 125.83C159.641 125.151 154.605 124.801 149.487 124.801C88.8929 124.801 39.7717 173.922 39.7717 234.516C39.7717 295.11 88.8929 344.231 149.487 344.231C154.605 344.231 159.641 343.881 164.573 343.203V125.83Z" fill="#386A6C"/>
<path d="M135.718 289.319L85.2334 238.835C83.6258 237.227 83.6796 234.604 85.352 233.064L105.425 214.575C107.041 213.087 109.554 213.18 111.055 214.784L135.747 241.159C137.27 242.786 139.83 242.854 141.437 241.31L204.986 180.278C206.541 178.785 208.999 178.792 210.544 180.293L228.83 198.056C230.443 199.624 230.447 202.212 228.839 203.785L141.343 289.351C139.776 290.883 137.268 290.869 135.718 289.319Z" fill="white"/>
</svg>
